<svg width="46" height="46" viewBox="0 0 46 46" fill="none" xmlns="http://www.w3.org/2000/svg">
<path d="M8.38542 40.25L5.70208 37.5667L25.3479 17.9208C24.7729 16.5792 24.6931 15.0618 25.1083 13.3687C25.5236 11.6757 26.434 10.1583 27.8396 8.81667C29.5326 7.12361 31.4174 6.13333 33.4937 5.84583C35.5701 5.55833 37.2632 6.06944 38.5729 7.37917C39.8826 8.68889 40.3937 10.3819 40.1062 12.4583C39.8187 14.5347 38.8285 16.4194 37.1354 18.1125C35.7937 19.5181 34.2764 20.4285 32.5833 20.8437C30.8903 21.259 29.3729 21.1792 28.0312 20.6042L25.6354 23L40.2021 37.5667L37.5187 40.25L22.9521 25.7792L8.38542 40.25ZM14.0396 23.8625L8.28958 18.1125C6.56458 16.3875 5.70208 14.3271 5.70208 11.9312C5.70208 9.53542 6.56458 7.475 8.28958 5.75L20.1729 17.7292L14.0396 23.8625Z" fill="black"/>
</svg>
