<svg width="44" height="44" viewBox="0 0 44 44" fill="none" xmlns="http://www.w3.org/2000/svg">
<path d="M15 43.6667C13.9917 43.6667 13.1285 43.3076 12.4104 42.5896C11.6924 41.8715 11.3333 41.0083 11.3333 40C11.3333 38.9917 11.6924 38.1285 12.4104 37.4104C13.1285 36.6924 13.9917 36.3333 15 36.3333C16.0083 36.3333 16.8715 36.6924 17.5896 37.4104C18.3076 38.1285 18.6667 38.9917 18.6667 40C18.6667 41.0083 18.3076 41.8715 17.5896 42.5896C16.8715 43.3076 16.0083 43.6667 15 43.6667ZM33.3333 43.6667C32.325 43.6667 31.4618 43.3076 30.7438 42.5896C30.0257 41.8715 29.6667 41.0083 29.6667 40C29.6667 38.9917 30.0257 38.1285 30.7438 37.4104C31.4618 36.6924 32.325 36.3333 33.3333 36.3333C34.3417 36.3333 35.2049 36.6924 35.9229 37.4104C36.641 38.1285 37 38.9917 37 40C37 41.0083 36.641 41.8715 35.9229 42.5896C35.2049 43.3076 34.3417 43.6667 33.3333 43.6667ZM13.4417 14.3333L17.8417 23.5H30.675L35.7167 14.3333H13.4417ZM11.7 10.6667H38.7417C39.4444 10.6667 39.9792 10.9799 40.3458 11.6063C40.7125 12.2326 40.7278 12.8667 40.3917 13.5083L33.8833 25.2417C33.5472 25.8528 33.0965 26.3264 32.5313 26.6625C31.966 26.9986 31.3472 27.1667 30.675 27.1667H17.0167L15 30.8333H37V34.5H15C13.625 34.5 12.5861 33.8965 11.8833 32.6896C11.1806 31.4826 11.15 30.2833 11.7917 29.0917L14.2667 24.6L7.66667 10.6667H4V7H9.95833L11.7 10.6667Z" fill="black"/>
</svg>
